<?xml version="1.0" encoding="utf-8"?>
<!-- Generator: Adobe Illustrator 21.0.0, SVG Export Plug-In . SVG Version: 6.00 Build 0)  -->
<svg version="1.1" id="Layer_1" xmlns="http://www.w3.org/2000/svg" xmlns:xlink="http://www.w3.org/1999/xlink" x="0px" y="0px"
	 viewBox="0 0 100 125" style="enable-background:new 0 0 100 125;" xml:space="preserve">
<style type="text/css">
	.st0{fill:#FFFFFF;}
</style>
<title>Artboard 21</title>
<path class="st0" d="M88.9,32c0,0,0-0.1,0-0.1v-0.1l-0.1-0.1l-0.1-0.1l-0.1-0.1l-0.1-0.1l-0.1-0.1L88.3,31h-0.1l-0.1-0.1l-0.2-0.1
	h-0.1c-4.9-1.6-12.9-2.5-21.5-2.5c-1.2,0-2.5,0-3.7,0.1c0.8-0.7,1.2-1.6,1.3-2.7c0-6.1-17.7-7.8-27.1-7.8S9.8,19.6,9.8,25.8V71
	c0,6.1,17.7,7.8,27.1,7.8c4.6,0,9.2-0.3,13.8-1l0.2-0.1c5.1-0.8,10.3-1.2,15.5-1.1c8.2,0,15.9,0.9,20.5,2.4l0,0
	c0.1,0,0.3,0.1,0.4,0.1l0,0c0.1,0,0.3,0,0.4-0.1h0.1c0.1,0,0.2-0.1,0.4-0.2l0,0c0.1-0.1,0.2-0.2,0.3-0.3v-0.1
	c0.1-0.1,0.3-0.3,0.3-0.4l0,0c0,0,0,0,0-0.1c0-0.1,0-0.2,0-0.3c0,0,0,0,0-0.1V32.2c0,0,0,0,0-0.1C88.8,32.1,88.9,32.1,88.9,32z
	 M36.9,21C52.8,21,61,24.3,61,25.8c0,0.9-3,2.4-8.7,3.5c-0.7,0.1-1.4,0.2-2.1,0.3L50,29.6c-4.3,0.6-8.7,0.9-13.1,0.9
	c-15.9,0-24.1-3.3-24.1-4.8S21,21,36.9,21L36.9,21z M50.2,74.8h-0.1c-4.4,0.6-8.8,0.9-13.2,0.9c-15.9,0-24.1-3.3-24.1-4.7V29.6
	c5.5,3,17.1,3.9,24.1,3.9c4.6,0,9.2-0.3,13.7-1h0.1c5.2-0.8,10.4-1.2,15.7-1.2c7.6,0,14.8,0.8,19.5,2.1v42.2
	c-6.4-1.4-12.9-2.1-19.5-2C61,73.5,55.5,73.9,50.2,74.8z"/>
<ellipse class="st0" cx="36.9" cy="25.8" rx="7.3" ry="1.8"/>
<path class="st0" d="M66.6,43.6C66,43,65,43,64.4,43.6L49,59c-0.6,0.6-0.6,1.5-0.1,2.1s1.5,0.6,2.1,0.1c0,0,0.1,0,0.1-0.1l15.4-15.4
	C67.1,45.2,67.1,44.2,66.6,43.6C66.6,43.6,66.6,43.6,66.6,43.6z"/>
<path class="st0" d="M71.7,48.8c-0.6-0.6-1.5-0.6-2.1,0l-8.5,8.5c-0.6,0.6-0.6,1.5-0.1,2.1s1.5,0.6,2.1,0.1c0,0,0.1,0,0.1-0.1
	l8.5-8.5C72.3,50.3,72.3,49.4,71.7,48.8z"/>
<path class="st0" d="M76.9,54c-0.6-0.6-1.5-0.6-2.1,0l-2.2,2.2c-0.6,0.6-0.6,1.5-0.1,2.1c0.6,0.6,1.5,0.6,2.1,0.1c0,0,0.1,0,0.1-0.1
	l2.2-2.2C77.5,55.5,77.5,54.5,76.9,54z"/>
</svg>
