<?xml version="1.0" encoding="utf-8"?>
<!-- Generator: Adobe Illustrator 21.0.0, SVG Export Plug-In . SVG Version: 6.00 Build 0)  -->
<svg version="1.1" id="Layer_1" xmlns="http://www.w3.org/2000/svg" xmlns:xlink="http://www.w3.org/1999/xlink" x="0px" y="0px"
	 viewBox="0 0 100 125" style="enable-background:new 0 0 100 125;" xml:space="preserve">
<style type="text/css">
	.st0{fill:#FFFFFF;stroke:#FFFFFF;stroke-width:0.75;stroke-miterlimit:10;}
</style>
<g>
	<path class="st0" d="M10.3,43.4c-1.2,4.6,1.5,9.3,6,10.4c2.2,0.6,4.5,0.3,6.5-0.8c0.6-0.4,1.3-0.8,1.8-1.3c1.1-1.1,1.8-2.3,2.2-3.7
		c1.3-4.5-1.5-9.3-6-10.4C16.2,36.1,11.5,38.8,10.3,43.4z M25.8,47.5c-0.5,1.9-1.8,3.6-3.5,4.5c-1.7,1-3.8,1.3-5.7,0.7
		c-4-1.1-6.4-5.2-5.4-9.2c0.4-1.3,1.1-2.5,1.9-3.3c1.8-1.8,4.5-2.7,7.3-1.9C24.4,39.4,26.8,43.5,25.8,47.5z"/>
	<path class="st0" d="M54.2,4.8C51,3,47.3,2.4,43.7,3.4c-3.6,0.9-6.6,3.3-8.4,6.4c-1.8,3.3-2.3,7-1.3,10.5c0.3,1,0.6,1.9,1.1,2.8
		l-0.4,0.4c-1.1,1.1-1.1,2.8,0,3.8c1,1,2.6,1.1,3.7,0.1c1.1,1,2.5,1.8,3.9,2.3c0.5,4.5,0.9,8.6,1.5,12.4c-3.8-0.6-8-1.1-12.4-1.5
		c-1.6-4.1-5.1-7.2-9.3-8.3c-3.5-1-7.3-0.5-10.5,1.3c-3.3,1.8-5.5,4.8-6.4,8.4c-1,3.5-0.5,7.3,1.4,10.5c1.8,3.3,4.8,5.5,8.4,6.4
		c7.4,2,15-2.4,17-9.8c0.1-0.6,0.3-1.1,0.4-1.6l12.8,3.3c7.4,42,19.7,42.5,20.3,42.5c0.1,0,0.2-0.1,0.4-0.2c0,0,0,0,0.1-0.1
		C66,93,66,92.9,66,92.7l-10.5-39l39,10.5c0.1,0,0.3,0,0.4-0.1c0,0,0,0,0.1-0.1c0.1-0.1,0.1-0.3,0.2-0.4c0-0.6-0.6-12.9-42.5-20.3
		l-3.6-12.8c0.6-0.1,1.1-0.1,1.6-0.4c7.4-2,11.7-9.6,9.8-17C59.7,9.6,57.4,6.6,54.2,4.8z M64.7,92.3c-2.7-0.8-12.3-6.1-18.5-41
		l8.1,2.2L64.7,92.3z M94,63L54.8,52.5l0,0l-9.1-2.5l0,0l-13.8-3.7c-0.1,0-0.3,0-0.4,0.1l-0.1,0.1c-0.1,0.1-0.1,0.1-0.1,0.3
		c-0.1,0.8-0.1,1.4-0.4,2.1c-1.8,6.8-8.9,10.9-15.7,9.1c-3.3-0.9-6.1-3-7.8-5.9s-2.2-6.4-1.3-9.8c0.9-3.3,3-6.1,6-7.8
		c3-1.7,6.4-2.2,9.8-1.3c4,1.1,7.4,4.1,8.8,8.1c0.1,0.2,0.2,0.4,0.4,0.3c4.7,0.5,9.2,1,13.3,1.6c3,0.4,5.7,0.8,7.9,1.3l0,0
		C87.7,50.6,93.2,60.3,94,63z M59.7,13.4c1.8,6.8-2.3,13.9-9.1,15.7c-0.6,0.2-1.3,0.4-2.1,0.4c-0.1,0-0.3,0.1-0.4,0.2
		c-0.1,0.1-0.1,0.3-0.1,0.4l3.5,13.1c-0.2-0.1-0.5-0.1-0.7-0.1c-0.1,0-0.4-0.1-0.5-0.1c-0.4-0.1-0.8-0.1-1.2-0.2
		c-0.2-0.1-0.4-0.1-0.6-0.1c-0.5-0.1-1-0.1-1.5-0.2c-0.4-0.1-0.8-0.1-1.1-0.1c-0.4-0.1-0.7-0.1-1.1-0.2c-0.6-4-1.1-8.3-1.6-12.9
		c0-0.1-0.2-0.4-0.3-0.4c-1.6-0.6-3-1.4-4.2-2.5c-0.2-0.2-0.5-0.2-0.7,0L38,26.5c-0.6,0.6-1.7,0.7-2.4,0c-0.6-0.6-0.6-1.8,0-2.4
		l0.6-0.6c0.1-0.1,0.1-0.4,0.1-0.6C35.8,22,35.3,21,35,20c-0.9-3.3-0.4-6.8,1.3-9.8s4.5-5.1,7.8-6l0,0c3.3-0.9,6.8-0.4,9.8,1.3
		C56.7,7.3,58.8,10.1,59.7,13.4z"/>
	<path class="st0" d="M45.1,8.6c-4.5,1.3-7.2,5.9-6,10.4c1.3,4.5,5.9,7.2,10.4,6c1.5-0.4,2.8-1.2,3.7-2.2c2.1-2.1,3-5.2,2.2-8.3l0,0
		C54.3,10,49.6,7.3,45.1,8.6z M54.6,14.8c1.1,4-1.3,8.1-5.3,9.3c-4,1.1-8.1-1.3-9.3-5.3c-0.7-2.7,0.1-5.4,1.9-7.3
		c0.9-0.9,2.1-1.6,3.3-1.9C49.3,8.4,53.4,10.8,54.6,14.8z"/>
	<path class="st0" d="M47.5,45.8c-0.8,0.8-0.8,2.1,0,2.8c0.8,0.8,2.1,0.8,2.8,0s0.8-2.1,0-2.8S48.3,45,47.5,45.8z M49.6,47.9
		c-0.4,0.4-1,0.4-1.4,0s-0.4-1,0-1.4s1-0.4,1.4,0S50,47.5,49.6,47.9z"/>
</g>
</svg>
